<svg width="239" height="36" viewBox="0 0 239 36" fill="none" xmlns="http://www.w3.org/2000/svg">
<path d="M29.8569 29.7695L36.8931 9.65479H41.3511L32.8916 33.8516C32.7305 34.335 32.4172 34.8184 31.9517 35.3018C31.5041 35.7673 30.8058 36 29.8569 36C28.9438 36 28.2546 35.7673 27.7891 35.3018C27.3415 34.8184 27.0192 34.335 26.8223 33.8516L20.7261 15.8584L14.6299 33.8516C14.4688 34.335 14.1465 34.8184 13.6631 35.3018C13.1976 35.7673 12.5083 36 11.5952 36C10.6821 36 9.98389 35.7673 9.50049 35.3018C9.03499 34.8184 8.72168 34.335 8.56055 33.8516L0.101074 9.65479H4.55908L11.5952 29.7695L17.6914 11.8032C17.8883 11.3556 18.2106 10.8901 18.6582 10.4067C19.1237 9.90544 19.813 9.65479 20.7261 9.65479C21.6392 9.65479 22.3285 9.90544 22.7939 10.4067C23.2773 10.8901 23.5996 11.3556 23.7607 11.8032L29.8569 29.7695ZM71.6172 18.8931C71.6172 19.6629 71.4382 20.388 71.0801 21.0684C70.7399 21.7487 70.2923 22.3574 69.7373 22.8945C69.2002 23.4137 68.5736 23.8345 67.8574 24.1567C67.1413 24.4611 66.3983 24.6133 65.6284 24.6133H49.3271V27.9434C49.3271 30.5215 50.6073 31.8105 53.1675 31.8105H71.6172V36H51.1533C50.3835 36 49.6494 35.8478 48.9512 35.5435C48.2529 35.2212 47.6174 34.8094 47.0444 34.3081C46.4715 33.7889 46.006 33.1802 45.6479 32.4819C45.3078 31.7837 45.1377 31.0675 45.1377 30.3335V15.375C45.1377 14.6051 45.3078 13.88 45.6479 13.1997C46.006 12.5194 46.4715 11.9196 47.0444 11.4004C47.6174 10.8633 48.2529 10.4425 48.9512 10.1382C49.6494 9.81592 50.3835 9.65479 51.1533 9.65479H65.6284C66.3983 9.65479 67.1413 9.81592 67.8574 10.1382C68.5736 10.4425 69.2002 10.8633 69.7373 11.4004C70.2923 11.9196 70.7399 12.5194 71.0801 13.1997C71.4382 13.88 71.6172 14.6051 71.6172 15.375V18.8931ZM64.1245 20.4238C64.5721 20.4238 64.9928 20.3433 65.3867 20.1821C65.7985 20.0031 66.1566 19.7614 66.4609 19.457C66.7653 19.1527 66.998 18.8035 67.1592 18.4097C67.3382 18.0158 67.4277 17.5861 67.4277 17.1206C67.4277 16.673 67.3382 16.2523 67.1592 15.8584C66.998 15.4466 66.7653 15.0975 66.4609 14.811C66.1566 14.5067 65.7985 14.2739 65.3867 14.1128C64.9928 13.9338 64.5721 13.8442 64.1245 13.8442H53.1675C50.6073 13.8442 49.3271 15.1512 49.3271 17.7651V20.4238H64.1245ZM85.0181 13.8442C82.4578 13.8442 81.1777 15.1512 81.1777 17.7651V27.9434C81.1777 30.5215 82.4578 31.8105 85.0181 31.8105H95.3574C97.9714 31.8105 99.2783 30.5215 99.2783 27.9434V17.7651C99.2783 15.1512 97.9714 13.8442 95.3574 13.8442H85.0181ZM97.479 9.65479C98.2489 9.65479 98.9829 9.81592 99.6812 10.1382C100.379 10.4425 101.006 10.8633 101.561 11.4004C102.134 11.9196 102.59 12.5194 102.931 13.1997C103.289 13.88 103.468 14.6051 103.468 15.375V30.3335C103.468 31.0675 103.289 31.7837 102.931 32.4819C102.59 33.1802 102.134 33.7889 101.561 34.3081C101.006 34.8094 100.379 35.2212 99.6812 35.5435C98.9829 35.8478 98.2489 36 97.479 36H83.0039C82.234 36 81.5 35.8478 80.8018 35.5435C80.1035 35.2212 79.4679 34.8094 78.895 34.3081C78.3221 33.7889 77.8566 33.1802 77.4985 32.4819C77.1584 31.7837 76.9883 31.0675 76.9883 30.3335V0.899902H81.1777V9.65479H97.479ZM108.893 32.8042C108.893 31.8553 109.197 31.0765 109.806 30.4678C110.414 29.859 111.175 29.5547 112.088 29.5547C113.037 29.5547 113.816 29.859 114.425 30.4678C115.034 31.0765 115.338 31.8553 115.338 32.8042C115.338 33.7173 115.034 34.4782 114.425 35.0869C113.816 35.6956 113.037 36 112.088 36C111.175 36 110.414 35.6956 109.806 35.0869C109.197 34.4782 108.893 33.7173 108.893 32.8042ZM141.307 20.4238C142.077 20.4238 142.811 20.585 143.509 20.9072C144.208 21.2116 144.834 21.6234 145.389 22.1426C145.962 22.6439 146.419 23.2437 146.759 23.9419C147.117 24.6401 147.296 25.3742 147.296 26.144V30.3335C147.296 31.0675 147.117 31.7837 146.759 32.4819C146.419 33.1802 145.962 33.7889 145.389 34.3081C144.834 34.8094 144.208 35.2212 143.509 35.5435C142.811 35.8478 142.077 36 141.307 36H122.025V31.8105H139.481C139.982 31.8105 140.448 31.721 140.877 31.542C141.325 31.3451 141.71 31.0854 142.032 30.7632C142.372 30.4409 142.632 30.0649 142.811 29.6353C143.008 29.1877 143.106 28.7132 143.106 28.2119C143.106 27.7106 143.008 27.2451 142.811 26.8154C142.632 26.3678 142.372 25.9829 142.032 25.6606C141.71 25.3384 141.325 25.0877 140.877 24.9087C140.448 24.7118 139.982 24.6133 139.481 24.6133H126.832C126.062 24.6133 125.328 24.4701 124.63 24.1836C123.932 23.8792 123.296 23.4674 122.723 22.9482C122.15 22.4111 121.685 21.8024 121.327 21.1221C120.986 20.4417 120.816 19.7166 120.816 18.9468V15.3213C120.816 14.5514 120.986 13.8353 121.327 13.1729C121.685 12.5104 122.15 11.9196 122.723 11.4004C123.296 10.8633 123.932 10.4425 124.63 10.1382C125.328 9.81592 126.062 9.65479 126.832 9.65479H146.087V13.8442H128.309C127.844 13.8442 127.414 13.9338 127.02 14.1128C126.626 14.2739 126.277 14.5067 125.973 14.811C125.668 15.0975 125.427 15.4466 125.248 15.8584C125.086 16.2523 125.006 16.673 125.006 17.1206C125.006 17.5861 125.086 18.0158 125.248 18.4097C125.427 18.8035 125.668 19.1527 125.973 19.457C126.277 19.7614 126.626 20.0031 127.02 20.1821C127.414 20.3433 127.844 20.4238 128.309 20.4238H141.307ZM171.036 13.8442H153.875V9.65479H173.158C173.928 9.65479 174.662 9.81592 175.36 10.1382C176.058 10.4425 176.685 10.8633 177.24 11.4004C177.813 11.9196 178.269 12.5194 178.609 13.1997C178.967 13.88 179.146 14.6051 179.146 15.375V30.3335C179.146 31.0675 178.967 31.7837 178.609 32.4819C178.269 33.1802 177.813 33.7889 177.24 34.3081C176.685 34.8094 176.058 35.2212 175.36 35.5435C174.662 35.8478 173.928 36 173.158 36H158.683C157.913 36 157.179 35.8478 156.48 35.5435C155.782 35.2212 155.147 34.8094 154.574 34.3081C154.001 33.7889 153.535 33.1802 153.177 32.4819C152.837 31.7837 152.667 31.0675 152.667 30.3335V24.1299C152.667 23.36 152.837 22.6349 153.177 21.9546C153.535 21.2743 154.001 20.6655 154.574 20.1284C155.147 19.5913 155.782 19.1795 156.48 18.8931C157.179 18.6066 157.913 18.4634 158.683 18.4634H174.957V17.7651C174.957 15.1512 173.65 13.8442 171.036 13.8442ZM160.697 22.6528C158.137 22.6528 156.856 23.9329 156.856 26.4932V27.9434C156.856 30.5215 158.137 31.8105 160.697 31.8105H171.036C173.65 31.8105 174.957 30.5215 174.957 27.9434V26.4932C174.957 23.9329 173.65 22.6528 171.036 22.6528H160.697ZM192.547 5.08936C189.987 5.08936 188.707 6.36947 188.707 8.92969V9.65479H194.535V13.8442H188.707V36H184.518V6.56641C184.518 5.79655 184.688 5.0804 185.028 4.41797C185.386 3.73763 185.851 3.12891 186.424 2.5918C186.997 2.05469 187.633 1.6429 188.331 1.35645C189.029 1.05208 189.763 0.899902 190.533 0.899902H194.535V5.08936H192.547ZM201.034 9.65479H205.277V36H201.034V9.65479ZM200.711 3.854C200.711 3.51383 200.774 3.19157 200.899 2.88721C201.025 2.58285 201.195 2.32324 201.41 2.1084C201.642 1.87565 201.902 1.69661 202.188 1.57129C202.493 1.44596 202.815 1.3833 203.155 1.3833C203.495 1.3833 203.818 1.44596 204.122 1.57129C204.426 1.69661 204.686 1.87565 204.901 2.1084C205.134 2.32324 205.313 2.58285 205.438 2.88721C205.563 3.19157 205.626 3.51383 205.626 3.854C205.626 4.19417 205.563 4.51644 205.438 4.8208C205.313 5.10726 205.134 5.36686 204.901 5.59961C204.686 5.81445 204.426 5.98454 204.122 6.10986C203.818 6.23519 203.495 6.29785 203.155 6.29785C202.475 6.29785 201.893 6.0651 201.41 5.59961C200.944 5.11621 200.711 4.53434 200.711 3.854ZM238.229 36H234.039V17.7651C234.039 15.1512 232.732 13.8442 230.118 13.8442H219.779C217.219 13.8442 215.938 15.1512 215.938 17.7651V36H211.749V15.375C211.749 14.6051 211.919 13.88 212.259 13.1997C212.617 12.5194 213.083 11.9196 213.656 11.4004C214.229 10.8633 214.864 10.4425 215.562 10.1382C216.261 9.81592 216.995 9.65479 217.765 9.65479H232.24C233.01 9.65479 233.744 9.81592 234.442 10.1382C235.14 10.4425 235.767 10.8633 236.322 11.4004C236.895 11.9196 237.351 12.5194 237.691 13.1997C238.049 13.88 238.229 14.6051 238.229 15.375V36Z" fill="white"/>
</svg>
